ffmpeg started on 2025-07-06 at 17:53:37
Report written to "D:\Convert\FFMetrics\reports\ssim_report-6.txt"
Log level: 32
Command line:
ffmpeg -hide_banner -nostdin -i "G:\\\xc0\xed\xe8\xec\xe5\\\xce\xed\xe3\xee\xe8\xed\xe3\xe8\\!_37_\xc7\xe8\xec\xe0_2025\\JamClub\\\xc3\xee\xeb\xf3\xe1\xe0\xff \xf8\xea\xe0\xf2\xf3\xeb\xea\xe0\\JamClub_Ao_no_Hako_12_1080p_HEVC.mkv" -i "G:\\\xc0\xed\xe8\xec\xe5\\\xce\xed\xe3\xee\xe8\xed\xe3\xe8\\!_37_\xc7\xe8\xec\xe0_2025\\JamClub\\\xc3\xee\xeb\xf3\xe1\xe0\xff \xf8\xea\xe0\xf2\xf3\xeb\xea\xe0\\JamClub_Ao_no_Hako_12_1080p.mp4" -lavfi "[0:v]settb=AVTB,setpts=PTS-STARTPTS,format=pix_fmts=yuv420p10,fps=24000/1001,scale=1920:1080:flags=bicubic[main];[1:v]settb=AVTB,setpts=PTS-STARTPTS,format=pix_fmts=yuv420p,fps=24000/1001,scale=1920:1080:flags=bicubic[ref];[main][ref]ssim=eof_action=endall:stats_file='D\\:/Convert/FFMetrics/logs/ssim_logfile-6.txt'" -f null -
Input #0, matroska,webm, from 'G:\Аниме\Онгоинги\!_37_Зима_2025\JamClub\Голубая шкатулка\JamClub_Ao_no_Hako_12_1080p_HEVC.mkv':
  Metadata:
    COMPATIBLE_BRANDS: isomiso2avc1mp41
    MAJOR_BRAND     : isom
    MINOR_VERSION   : 512
    ENCODER         : Lavf61.7.100
  Duration: 00:23:59.25, start: -0.001000, bitrate: 1401 kb/s
  Stream #0:0: Video: hevc (Main 10), yuv420p10le(tv, bt709, progressive), 1920x1080 [SAR 1:1 DAR 16:9], 23.98 fps, 23.98 tbr, 1k tbn (default)
      Metadata:
        HANDLER_NAME    : VideoHandler
        VENDOR_ID       : [0][0][0][0]
        ENCODER         : Lavc61.19.100 libx265
        BPS             : 1203705
        DURATION        : 00:23:59.187708333
        NUMBER_OF_FRAMES: 34506
        NUMBER_OF_BYTES : 216544642
        _STATISTICS_WRITING_APP: mkvpropedit v66.0.0 ('Josie') 64-bit
        _STATISTICS_WRITING_DATE_UTC: 2025-07-05 09:47:02
        _STATISTICS_TAGS: BPS DURATION NUMBER_OF_FRAMES NUMBER_OF_BYTES
  Stream #0:1(eng): Audio: aac (LC), 48000 Hz, stereo, fltp (default)
      Metadata:
        HANDLER_NAME    : SoundHandler
        VENDOR_ID       : [0][0][0][0]
        ENCODER         : Lavc61.19.100 aac
        BPS             : 193782
        DURATION        : 00:23:59.213000000
        NUMBER_OF_FRAMES: 67464
        NUMBER_OF_BYTES : 34861865
        _STATISTICS_WRITING_APP: mkvpropedit v66.0.0 ('Josie') 64-bit
        _STATISTICS_WRITING_DATE_UTC: 2025-07-05 09:47:02
        _STATISTICS_TAGS: BPS DURATION NUMBER_OF_FRAMES NUMBER_OF_BYTES
Input #1, mov,mp4,m4a,3gp,3g2,mj2, from 'G:\Аниме\Онгоинги\!_37_Зима_2025\JamClub\Голубая шкатулка\JamClub_Ao_no_Hako_12_1080p.mp4':
  Metadata:
    major_brand     : isom
    minor_version   : 512
    compatible_brands: isomiso2avc1mp41
    encoder         : Lavf60.16.100
  Duration: 00:23:59.23, start: 0.000000, bitrate: 4749 kb/s
  Stream #1:0[0x1](und): Video: h264 (High) (avc1 / 0x31637661), yuv420p(progressive), 1920x1080 [SAR 1:1 DAR 16:9], 4551 kb/s, 23.98 fps, 23.98 tbr, 90k tbn (default)
      Metadata:
        handler_name    : VideoHandler
        vendor_id       : [0][0][0][0]
  Stream #1:1[0x2](eng): Audio: aac (LC) (mp4a / 0x6134706D), 48000 Hz, stereo, fltp, 191 kb/s (default)
      Metadata:
        handler_name    : SoundHandler
        vendor_id       : [0][0][0][0]
Stream mapping:
  Stream #0:0 (hevc) -> settb:default
  Stream #1:0 (h264) -> settb:default
  ssim:default -> Stream #0:0 (wrapped_avframe)
  Stream #0:1 -> #0:1 (aac (native) -> pcm_s16le (native))
Output #0, null, to 'pipe:':
  Metadata:
    COMPATIBLE_BRANDS: isomiso2avc1mp41
    MAJOR_BRAND     : isom
    MINOR_VERSION   : 512
    encoder         : Lavf61.7.100
  Stream #0:0: Video: wrapped_avframe, yuv420p10le(tv, bt709, progressive), 1920x1080 [SAR 1:1 DAR 16:9], q=2-31, 200 kb/s, 23.98 fps, 23.98 tbn
      Metadata:
        encoder         : Lavc61.19.100 wrapped_avframe
  Stream #0:1(eng): Audio: pcm_s16le, 48000 Hz, stereo, s16, 1536 kb/s (default)
      Metadata:
        HANDLER_NAME    : SoundHandler
        VENDOR_ID       : [0][0][0][0]
        _STATISTICS_TAGS: BPS DURATION NUMBER_OF_FRAMES NUMBER_OF_BYTES
        BPS             : 193782
        DURATION        : 00:23:59.213000000
        NUMBER_OF_FRAMES: 67464
        NUMBER_OF_BYTES : 34861865
        _STATISTICS_WRITING_APP: mkvpropedit v66.0.0 ('Josie') 64-bit
        _STATISTICS_WRITING_DATE_UTC: 2025-07-05 09:47:02
        encoder         : Lavc61.19.100 pcm_s16le
frame=  110 fps=0.0 q=-0.0 size=N/A time=00:00:04.58 bitrate=N/A speed=8.71x    frame=  269 fps=259 q=-0.0 size=N/A time=00:00:11.21 bitrate=N/A speed=10.8x    frame=  458 fps=295 q=-0.0 size=N/A time=00:00:19.10 bitrate=N/A speed=12.3x    frame=  698 fps=339 q=-0.0 size=N/A time=00:00:29.11 bitrate=N/A speed=14.1x    frame=  904 fps=349 q=-0.0 size=N/A time=00:00:37.70 bitrate=N/A speed=14.6x    frame= 1132 fps=365 q=-0.0 size=N/A time=00:00:47.21 bitrate=N/A speed=15.2x    frame= 1364 fps=378 q=-0.0 size=N/A time=00:00:56.89 bitrate=N/A speed=15.8x    frame= 1589 fps=385 q=-0.0 size=N/A time=00:01:06.27 bitrate=N/A speed=16.1x    frame= 1810 fps=389 q=-0.0 size=N/A time=00:01:15.49 bitrate=N/A speed=16.2x    frame= 2015 fps=390 q=-0.0 size=N/A time=00:01:24.04 bitrate=N/A speed=16.3x    frame= 2229 fps=393 q=-0.0 size=N/A time=00:01:32.96 bitrate=N/A speed=16.4x    frame= 2438 fps=394 q=-0.0 size=N/A time=00:01:41.68 bitrate=N/A speed=16.4x    frame= 2641 fps=394 q=-0.0 size=N/A time=00:01:50.15 bitrate=N/A speed=16.4x    frame= 2828 fps=392 q=-0.0 size=N/A time=00:01:57.95 bitrate=N/A speed=16.3x    frame= 3037 fps=393 q=-0.0 size=N/A time=00:02:06.66 bitrate=N/A speed=16.4x    frame= 3243 fps=393 q=-0.0 size=N/A time=00:02:15.26 bitrate=N/A speed=16.4x    frame= 3462 fps=395 q=-0.0 size=N/A time=00:02:24.39 bitrate=N/A speed=16.5x    frame= 3684 fps=397 q=-0.0 size=N/A time=00:02:33.65 bitrate=N/A speed=16.6x    frame= 3887 fps=397 q=-0.0 size=N/A time=00:02:42.12 bitrate=N/A speed=16.6x    frame= 4108 fps=398 q=-0.0 size=N/A time=00:02:51.33 bitrate=N/A speed=16.6x    frame= 4341 fps=401 q=-0.0 size=N/A time=00:03:01.05 bitrate=N/A speed=16.7x    frame= 4578 fps=403 q=-0.0 size=N/A time=00:03:10.94 bitrate=N/A speed=16.8x    frame= 4822 fps=407 q=-0.0 size=N/A time=00:03:21.11 bitrate=N/A speed=  17x    frame= 5087 fps=411 q=-0.0 size=N/A time=00:03:32.17 bitrate=N/A speed=17.1x    frame= 5319 fps=412 q=-0.0 size=N/A time=00:03:41.84 bitrate=N/A speed=17.2x    frame= 5557 fps=414 q=-0.0 size=N/A time=00:03:51.77 bitrate=N/A speed=17.3x    frame= 5827 fps=419 q=-0.0 size=N/A time=00:04:03.03 bitrate=N/A speed=17.5x    frame= 6093 fps=422 q=-0.0 size=N/A time=00:04:14.12 bitrate=N/A speed=17.6x    frame= 6347 fps=424 q=-0.0 size=N/A time=00:04:24.72 bitrate=N/A speed=17.7x    frame= 6611 fps=427 q=-0.0 size=N/A time=00:04:35.73 bitrate=N/A speed=17.8x    frame= 6870 fps=430 q=-0.0 size=N/A time=00:04:46.53 bitrate=N/A speed=17.9x    frame= 7131 fps=432 q=-0.0 size=N/A time=00:04:57.42 bitrate=N/A speed=  18x    frame= 7395 fps=435 q=-0.0 size=N/A time=00:05:08.43 bitrate=N/A speed=18.1x    frame= 7658 fps=437 q=-0.0 size=N/A time=00:05:19.40 bitrate=N/A speed=18.2x    frame= 7903 fps=438 q=-0.0 size=N/A time=00:05:29.62 bitrate=N/A speed=18.3x    frame= 8126 fps=438 q=-0.0 size=N/A time=00:05:38.92 bitrate=N/A speed=18.3x    frame= 8375 fps=439 q=-0.0 size=N/A time=00:05:49.30 bitrate=N/A speed=18.3x    frame= 8560 fps=437 q=-0.0 size=N/A time=00:05:57.02 bitrate=N/A speed=18.2x    frame= 8818 fps=438 q=-0.0 size=N/A time=00:06:07.78 bitrate=N/A speed=18.3x    frame= 9091 fps=441 q=-0.0 size=N/A time=00:06:19.17 bitrate=N/A speed=18.4x    frame= 9314 fps=441 q=-0.0 size=N/A time=00:06:28.47 bitrate=N/A speed=18.4x    frame= 9556 fps=441 q=-0.0 size=N/A time=00:06:38.56 bitrate=N/A speed=18.4x    frame= 9811 fps=442 q=-0.0 size=N/A time=00:06:49.20 bitrate=N/A speed=18.4x    frame=10061 fps=443 q=-0.0 size=N/A time=00:06:59.62 bitrate=N/A speed=18.5x    frame=10315 fps=445 q=-0.0 size=N/A time=00:07:10.22 bitrate=N/A speed=18.5x    frame=10554 fps=445 q=-0.0 size=N/A time=00:07:20.18 bitrate=N/A speed=18.6x    frame=10809 fps=446 q=-0.0 size=N/A time=00:07:30.82 bitrate=N/A speed=18.6x    frame=11073 fps=447 q=-0.0 size=N/A time=00:07:41.83 bitrate=N/A speed=18.7x    frame=11323 fps=448 q=-0.0 size=N/A time=00:07:52.26 bitrate=N/A speed=18.7x    frame=11588 fps=449 q=-0.0 size=N/A time=00:08:03.31 bitrate=N/A speed=18.7x    frame=11852 fps=451 q=-0.0 size=N/A time=00:08:14.32 bitrate=N/A speed=18.8x    frame=12103 fps=451 q=-0.0 size=N/A time=00:08:24.79 bitrate=N/A speed=18.8x    frame=12356 fps=452 q=-0.0 size=N/A time=00:08:35.34 bitrate=N/A speed=18.9x    frame=12589 fps=452 q=-0.0 size=N/A time=00:08:45.06 bitrate=N/A speed=18.9x    frame=12844 fps=453 q=-0.0 size=N/A time=00:08:55.70 bitrate=N/A speed=18.9x    frame=13073 fps=453 q=-0.0 size=N/A time=00:09:05.25 bitrate=N/A speed=18.9x    frame=13283 fps=452 q=-0.0 size=N/A time=00:09:14.01 bitrate=N/A speed=18.9x    frame=13509 fps=452 q=-0.0 size=N/A time=00:09:23.43 bitrate=N/A speed=18.8x    frame=13750 fps=452 q=-0.0 size=N/A time=00:09:33.48 bitrate=N/A speed=18.8x    frame=13997 fps=452 q=-0.0 size=N/A time=00:09:43.79 bitrate=N/A speed=18.9x    frame=14232 fps=453 q=-0.0 size=N/A time=00:09:53.59 bitrate=N/A speed=18.9x    frame=14478 fps=453 q=-0.0 size=N/A time=00:10:03.85 bitrate=N/A speed=18.9x    frame=14731 fps=453 q=-0.0 size=N/A time=00:10:14.40 bitrate=N/A speed=18.9x    frame=14987 fps=454 q=-0.0 size=N/A time=00:10:25.08 bitrate=N/A speed=18.9x    frame=15268 fps=455 q=-0.0 size=N/A time=00:10:36.80 bitrate=N/A speed=  19x    frame=15531 fps=456 q=-0.0 size=N/A time=00:10:47.77 bitrate=N/A speed=  19x    frame=15787 fps=457 q=-0.0 size=N/A time=00:10:58.44 bitrate=N/A speed=19.1x    frame=16049 fps=458 q=-0.0 size=N/A time=00:11:09.37 bitrate=N/A speed=19.1x    frame=16303 fps=458 q=-0.0 size=N/A time=00:11:19.97 bitrate=N/A speed=19.1x    frame=16553 fps=459 q=-0.0 size=N/A time=00:11:30.39 bitrate=N/A speed=19.1x    frame=16809 fps=459 q=-0.0 size=N/A time=00:11:41.07 bitrate=N/A speed=19.1x    frame=17070 fps=460 q=-0.0 size=N/A time=00:11:51.96 bitrate=N/A speed=19.2x    frame=17337 fps=460 q=-0.0 size=N/A time=00:12:03.09 bitrate=N/A speed=19.2x    frame=17587 fps=461 q=-0.0 size=N/A time=00:12:13.52 bitrate=N/A speed=19.2x    frame=17825 fps=461 q=-0.0 size=N/A time=00:12:23.45 bitrate=N/A speed=19.2x    frame=18039 fps=460 q=-0.0 size=N/A time=00:12:32.37 bitrate=N/A speed=19.2x    frame=18298 fps=461 q=-0.0 size=N/A time=00:12:43.17 bitrate=N/A speed=19.2x    frame=18533 fps=461 q=-0.0 size=N/A time=00:12:52.98 bitrate=N/A speed=19.2x    frame=18789 fps=461 q=-0.0 size=N/A time=00:13:03.65 bitrate=N/A speed=19.2x    frame=19045 fps=462 q=-0.0 size=N/A time=00:13:14.33 bitrate=N/A speed=19.3x    frame=19292 fps=462 q=-0.0 size=N/A time=00:13:24.63 bitrate=N/A speed=19.3x    frame=19547 fps=462 q=-0.0 size=N/A time=00:13:35.27 bitrate=N/A speed=19.3x    frame=19788 fps=462 q=-0.0 size=N/A time=00:13:45.32 bitrate=N/A speed=19.3x    frame=20036 fps=462 q=-0.0 size=N/A time=00:13:55.66 bitrate=N/A speed=19.3x    frame=20291 fps=463 q=-0.0 size=N/A time=00:14:06.30 bitrate=N/A speed=19.3x    frame=20530 fps=463 q=-0.0 size=N/A time=00:14:16.27 bitrate=N/A speed=19.3x    frame=20741 fps=462 q=-0.0 size=N/A time=00:14:25.07 bitrate=N/A speed=19.3x    frame=20960 fps=462 q=-0.0 size=N/A time=00:14:34.20 bitrate=N/A speed=19.3x    frame=21206 fps=462 q=-0.0 size=N/A time=00:14:44.46 bitrate=N/A speed=19.3x    frame=21433 fps=462 q=-0.0 size=N/A time=00:14:53.93 bitrate=N/A speed=19.3x    frame=21633 fps=461 q=-0.0 size=N/A time=00:15:02.27 bitrate=N/A speed=19.2x    frame=21868 fps=461 q=-0.0 size=N/A time=00:15:12.07 bitrate=N/A speed=19.2x    frame=22108 fps=461 q=-0.0 size=N/A time=00:15:22.08 bitrate=N/A speed=19.2x    frame=22346 fps=461 q=-0.0 size=N/A time=00:15:32.01 bitrate=N/A speed=19.2x    frame=22555 fps=460 q=-0.0 size=N/A time=00:15:40.73 bitrate=N/A speed=19.2x    frame=22745 fps=459 q=-0.0 size=N/A time=00:15:48.65 bitrate=N/A speed=19.2x    frame=22924 fps=458 q=-0.0 size=N/A time=00:15:56.12 bitrate=N/A speed=19.1x    frame=23185 fps=459 q=-0.0 size=N/A time=00:16:07.00 bitrate=N/A speed=19.1x    frame=23388 fps=458 q=-0.0 size=N/A time=00:16:15.47 bitrate=N/A speed=19.1x    frame=23550 fps=457 q=-0.0 size=N/A time=00:16:22.23 bitrate=N/A speed=  19x    frame=23754 fps=456 q=-0.0 size=N/A time=00:16:30.73 bitrate=N/A speed=  19x    frame=23956 fps=456 q=-0.0 size=N/A time=00:16:39.16 bitrate=N/A speed=  19x    frame=24200 fps=456 q=-0.0 size=N/A time=00:16:49.34 bitrate=N/A speed=  19x    frame=24438 fps=456 q=-0.0 size=N/A time=00:16:59.26 bitrate=N/A speed=  19x    frame=24566 fps=454 q=-0.0 size=N/A time=00:17:04.60 bitrate=N/A speed=18.9x    frame=24716 fps=452 q=-0.0 size=N/A time=00:17:10.86 bitrate=N/A speed=18.9x    frame=24967 fps=452 q=-0.0 size=N/A time=00:17:21.33 bitrate=N/A speed=18.9x    frame=25196 fps=452 q=-0.0 size=N/A time=00:17:30.88 bitrate=N/A speed=18.9x    frame=25402 fps=452 q=-0.0 size=N/A time=00:17:39.47 bitrate=N/A speed=18.9x    frame=25590 fps=451 q=-0.0 size=N/A time=00:17:47.31 bitrate=N/A speed=18.8x    frame=25762 fps=450 q=-0.0 size=N/A time=00:17:54.49 bitrate=N/A speed=18.8x    frame=26022 fps=451 q=-0.0 size=N/A time=00:18:05.33 bitrate=N/A speed=18.8x    frame=26272 fps=451 q=-0.0 size=N/A time=00:18:15.76 bitrate=N/A speed=18.8x    frame=26492 fps=451 q=-0.0 size=N/A time=00:18:24.93 bitrate=N/A speed=18.8x    frame=26728 fps=451 q=-0.0 size=N/A time=00:18:34.78 bitrate=N/A speed=18.8x    frame=26962 fps=451 q=-0.0 size=N/A time=00:18:44.54 bitrate=N/A speed=18.8x    frame=27175 fps=450 q=-0.0 size=N/A time=00:18:53.42 bitrate=N/A speed=18.8x    frame=27365 fps=450 q=-0.0 size=N/A time=00:19:01.34 bitrate=N/A speed=18.8x    frame=27583 fps=449 q=-0.0 size=N/A time=00:19:10.44 bitrate=N/A speed=18.7x    frame=27831 fps=450 q=-0.0 size=N/A time=00:19:20.78 bitrate=N/A speed=18.8x    frame=28094 fps=450 q=-0.0 size=N/A time=00:19:31.75 bitrate=N/A speed=18.8x    frame=28330 fps=450 q=-0.0 size=N/A time=00:19:41.59 bitrate=N/A speed=18.8x    frame=28576 fps=451 q=-0.0 size=N/A time=00:19:51.85 bitrate=N/A speed=18.8x    frame=28809 fps=451 q=-0.0 size=N/A time=00:20:01.57 bitrate=N/A speed=18.8x    frame=29054 fps=451 q=-0.0 size=N/A time=00:20:11.79 bitrate=N/A speed=18.8x    frame=29317 fps=451 q=-0.0 size=N/A time=00:20:22.76 bitrate=N/A speed=18.8x    frame=29539 fps=451 q=-0.0 size=N/A time=00:20:32.02 bitrate=N/A speed=18.8x    frame=29780 fps=451 q=-0.0 size=N/A time=00:20:42.07 bitrate=N/A speed=18.8x    frame=30012 fps=451 q=-0.0 size=N/A time=00:20:51.75 bitrate=N/A speed=18.8x    frame=30268 fps=452 q=-0.0 size=N/A time=00:21:02.42 bitrate=N/A speed=18.8x    frame=30528 fps=452 q=-0.0 size=N/A time=00:21:13.27 bitrate=N/A speed=18.8x    frame=30755 fps=452 q=-0.0 size=N/A time=00:21:22.73 bitrate=N/A speed=18.8x    frame=31000 fps=452 q=-0.0 size=N/A time=00:21:32.95 bitrate=N/A speed=18.9x    frame=31250 fps=452 q=-0.0 size=N/A time=00:21:43.38 bitrate=N/A speed=18.9x    frame=31493 fps=452 q=-0.0 size=N/A time=00:21:53.52 bitrate=N/A speed=18.9x    frame=31751 fps=453 q=-0.0 size=N/A time=00:22:04.28 bitrate=N/A speed=18.9x    frame=32009 fps=453 q=-0.0 size=N/A time=00:22:15.04 bitrate=N/A speed=18.9x    frame=32241 fps=453 q=-0.0 size=N/A time=00:22:24.71 bitrate=N/A speed=18.9x    frame=32469 fps=453 q=-0.0 size=N/A time=00:22:34.22 bitrate=N/A speed=18.9x    frame=32674 fps=453 q=-0.0 size=N/A time=00:22:42.77 bitrate=N/A speed=18.9x    frame=32889 fps=452 q=-0.0 size=N/A time=00:22:51.74 bitrate=N/A speed=18.9x    frame=33089 fps=452 q=-0.0 size=N/A time=00:23:00.08 bitrate=N/A speed=18.8x    frame=33307 fps=452 q=-0.0 size=N/A time=00:23:09.17 bitrate=N/A speed=18.8x    frame=33552 fps=452 q=-0.0 size=N/A time=00:23:19.39 bitrate=N/A speed=18.8x    frame=33758 fps=451 q=-0.0 size=N/A time=00:23:27.98 bitrate=N/A speed=18.8x    frame=33974 fps=451 q=-0.0 size=N/A time=00:23:36.99 bitrate=N/A speed=18.8x    frame=34203 fps=451 q=-0.0 size=N/A time=00:23:46.55 bitrate=N/A speed=18.8x    frame=34431 fps=451 q=-0.0 size=N/A time=00:23:56.05 bitrate=N/A speed=18.8x    [Parsed_ssim_10 @ 0000022420828300] SSIM Y:0.993941 (22.175969) U:0.993458 (21.842861) V:0.993254 (21.709508) All:0.993746 (22.038396)
[out#0/null @ 0000022414a5c040] video:14827KiB audio:269856KiB subtitle:0KiB other streams:0KiB global headers:0KiB muxing overhead: unknown
frame=34506 fps=451 q=-0.0 Lsize=N/A time=00:23:59.18 bitrate=N/A speed=18.8x    
